<mxfile host="app.diagrams.net" modified="2024-03-07T09:41:49.764Z" agent="Mozilla/5.0 (Windows NT 10.0; Win64; x64) AppleWebKit/537.36 (KHTML, like Gecko) Chrome/122.0.0.0 Safari/537.36" version="24.0.2" etag="Rua3V923D2Sm72aughOO" type="github">
  <diagram name="Page-1" id="dbQoS-Kyb1723cBx1yjn">
    <mxGraphModel>
      <root>
        <mxCell id="0" />
        <mxCell id="1" parent="0" />
      </root>
    </mxGraphModel>
  </diagram>
</mxfile>
